# xmcd
#
# Track frame offsets:
#	150
#	27800
#	43378
#	56825
#	71975
#	92035
#	113330
#	126343
#	151298
#	169190
#
# Disc length: 3036 seconds
#
# Revision: 6
# Processed by: cddbd v1.5.2PL0 Copyright (c) Steve Scherf et al.
# Submitted via: audiograbber 1.83.01
#
DISCID=890bda0a
DTITLE=The Tractors - Farmers In A Changing World
DYEAR=1998
DGENRE=Country
TTITLE0=I Wouldn't Tell You No Lie
TTITLE1=Linda Lou
TTITLE2=How Long Will It Take
TTITLE3=Shortenin' Bread
TTITLE4=The World's Biggest Fool
TTITLE5=Poor Boy Shuffle
TTITLE6=With A Girl Like You
TTITLE7=The Elvis Thing/Mystery Train
TTITLE8=Way Too Late
TTITLE9=Foot Stomp Stompin' (to 5:56)/Hale-Bopp Boogie (from 7:56)
EXTD=YEAR: 1998
EXTT0=
EXTT1=
EXTT2=
EXTT3=
EXTT4=
EXTT5=
EXTT6=
EXTT7=
EXTT8=
EXTT9=
PLAYORDER=
